<?xml version="1.0" encoding="utf-8"?>
<!-- Generator: Adobe Illustrator 24.3.0, SVG Export Plug-In . SVG Version: 6.00 Build 0)  -->
<svg version="1.1" id="katman_1" xmlns="http://www.w3.org/2000/svg" xmlns:xlink="http://www.w3.org/1999/xlink" x="0px" y="0px"
	 viewBox="0 0 560 400" style="enable-background:new 0 0 560 400;" xml:space="preserve">
<style type="text/css">
	.st0{fill:#001425;}
	.st1{fill:#96D8D8;}
	.st2{fill:#C8102E;}
	.st3{fill:#639FB6;}
</style>
<g transform="matrix(1.11111 0 0 1.11111 180 66.7722743)">
	<path class="st0" d="M0,190.9c44,3.9,72,16.3,85.6,42c46.6-7.5,89.6-37.4,89.6-75.9c0-51.3-62.1-59.3-63.8-74.3
		c26.1,9.5,54.9-0.5,68.6-33.1c-40.6-3-70.3-17.8-83.1-42.8C47.1,15.7,7.3,48,7.3,82.7c0,50.8,65.3,64.3,72.6,75.1
		C44.3,144.3,13.5,159.7,0,190.9z"/>
	<path class="st1" d="M77.2,80.1c-5.6-5.7-7.9-10.1-7.9-15.9c0-6.7,3.2-10,3.2-13.7c0-3.2-2-5.8-5.9-6.5c2.1-2.4,5.1-3.8,8.3-3.9
		c16.6,0,21.5,36.7,56.2,35.4c12.4-1.2,24-7.2,31.4-17.7c-30.3-4-57.9-16.8-71.4-38.7c-14,2.5-72.7,22.8-71.2,65.2
		c1.5,44.2,66.9,56.4,85.2,75.4c14.4,15,4.3,30-5,35.5c-14.3-37.3-61.5-40-80.3-13c30.2,3.9,57.9,16.8,71.4,38.6
		c33.4-7,49.5-36.3,43.4-57.4c-10.2-35-76-41.1-93.5-73.8C31.7,71.1,39.3,51.4,56.4,40c-6.3,7.9-9.8,17.8-9.8,27.9
		c1.5,1.7,2.2,5.5,2.2,5.6c0.2,1.3,0.6,4.2-0.1,6c0.8,2,1.7,3.9,2.8,5.6c2.3,0.6,4.9,3.6,4.9,3.6c2.5,2.9,2.9,4.7,3,5.4
		c1.5,1.4,3.2,2.7,5,4c1.5-0.2,3.7,0.5,6,2c2.6,1.7,3.9,3.4,4.3,4.7c1.8,1.1,3.7,2.1,5.6,3.1c1.5-0.4,3.9,0.1,6.3,1.3s4.2,3,4.8,4.4
		l5.8,2.9c1.5-0.4,3.9,0,6.3,1.2s4.2,2.9,4.7,4.3c2,1,4,2.1,5.9,3.1c1.8-0.4,4.7,0.7,6.2,1.7c1.9,1,3.5,2.6,4.4,4.6
		c2,1.3,3.8,2.6,5.7,3.9c1.5-0.1,3.8,0.8,5.9,2.6c2.3,2,3.4,4.1,3.5,5.7c1.6,1.6,3,3.4,4.3,5.2c1.9,0.5,3.7,2.6,4.8,4.8
		c1.4,3.1,1.3,5.4,0.8,6.5c2.5,7.8,3.2,17.7-0.9,29c0,0.1-0.1,0.2-0.1,0.4c8.4-9.2,14.1-20.5,13.6-34.1
		C160.9,111.4,95.5,99.1,77.2,80.1L77.2,80.1z"/>
	<path class="st2" d="M102.3,84.7C94.9,76.2,90.1,60.9,81.9,55C78.2,68.1,85.8,82.4,102.3,84.7z"/>
	<path class="st3" d="M96.4,207.9c-1.5,4.4-3.2,8.7-5.3,12.8C77.6,198.9,50,186,19.7,182.1C51,166.4,83.4,182.9,96.4,207.9
		L96.4,207.9z M162.6,57.6c-31.3,15.7-63.7-0.8-76.7-25.9c1.5-4.4,3.2-8.6,5.3-12.8c-13.2,2.4-72.8,22.4-71.2,65.2
		c1.5,44.2,66.9,56.4,85.2,75.4c14.4,15,4.3,30-5,35.5c-1,4.3-2.2,8.6-3.6,12.8c6.8-1.2,27.4-12.1,27.6-33.1
		c0.2-29-37.3-36.6-65.6-54.2C35,106.1,30.5,91.8,29.3,82.7c-2.8-21.4,12.3-40.9,34.2-50.1c-2.6,2.2-5,4.7-7.1,7.4
		c-6.3,7.9-9.8,17.8-9.8,27.9c1.5,1.7,2.2,5.5,2.2,5.6c0.2,1.3,0.6,4.2-0.1,6c0.8,1.9,1.7,3.8,2.8,5.5c2.3,0.6,4.9,3.6,4.9,3.6
		c2.5,2.9,2.9,4.7,3,5.4c1.5,1.4,3.2,2.7,5,4c1.5-0.2,3.7,0.6,6,2c2.6,1.7,3.9,3.4,4.3,4.7c1.8,1.1,3.7,2.1,5.6,3.1
		c1.5-0.4,3.9,0.1,6.3,1.3s4.2,3,4.8,4.4l5.8,2.9c1.5-0.4,3.9,0,6.3,1.2s4.2,2.9,4.7,4.3c2,1,4,2.1,5.9,3.1c1.8-0.4,4.7,0.7,6.2,1.7
		c1.9,1,3.5,2.6,4.4,4.6c2,1.3,3.8,2.6,5.7,3.9c1.5-0.1,3.8,0.8,5.9,2.6c2.3,2,3.4,4.1,3.5,5.6c1.6,1.7,3,3.4,4.3,5.2
		c1.9,0.5,3.7,2.6,4.8,4.8c1.4,3.1,1.3,5.4,0.8,6.5c2.5,7.8,3.2,17.7-0.9,29c10.8-18.3,9.7-36.4-2.3-51.7
		c-25.2-32-88.5-35.9-88.3-72.6c0.1-7.8,3.1-15.2,8.4-21c2.1-2.4,5.1-3.8,8.3-3.9c16.6,0,21.5,36.7,56.2,35.4
		C143.6,74.2,155.2,68.2,162.6,57.6L162.6,57.6z"/>
</g>
</svg>
