<?xml version="1.0" encoding="UTF-8"?>
<svg id="logosandtypes_com" data-name="logosandtypes com" xmlns="http://www.w3.org/2000/svg" viewBox="0 0 150 150">
  <defs>
    <style>
      .cls-1 {
        fill: #001425;
      }

      .cls-2 {
        fill: #c8102e;
      }

      .cls-3 {
        fill: #96d8d8;
      }

      .cls-4 {
        fill: #639fb6;
      }

      .cls-5 {
        fill: none;
      }
    </style>
  </defs>
  <g id="Layer_3" data-name="Layer 3">
    <g id="Layer_2" data-name="Layer 2">
      <path id="Layer_3-2" data-name="Layer 3-2" class="cls-5" d="M0,0H150V150H0V0Z"/>
    </g>
  </g>
  <path class="cls-1" d="M21.61,117.95c26.24,2.3,42.94,9.7,51.03,25.05,27.76-4.5,53.44-22.3,53.44-45.26,0-30.57-37.05-35.38-38.03-44.29,15.58,5.65,32.73-.29,40.92-19.74-24.2-1.79-41.92-10.62-49.59-25.52-29.68,5.27-53.43,24.51-53.43,45.24,0,30.32,38.96,38.34,43.32,44.77-21.26-8.06-39.6,1.12-47.66,19.74Z"/>
  <path class="cls-3" d="M67.68,51.87c-3.32-3.38-4.71-6.04-4.71-9.51,0-4,1.92-5.96,1.92-8.18,0-1.92-1.19-3.43-3.52-3.89,1.27-1.42,3.06-2.27,4.96-2.35,9.91,0,12.84,21.9,33.51,21.11,7.37-.7,14.31-4.28,18.71-10.57-18.05-2.36-34.53-10.03-42.59-23.07h0c-8.35,1.52-43.38,13.61-42.5,38.88,.92,26.34,39.88,33.67,50.79,44.98,8.59,8.95,2.54,17.89-2.98,21.18-8.56-22.25-36.68-23.86-47.88-7.75,18.03,2.32,34.52,10,42.57,23.03,19.91-4.18,29.52-21.64,25.87-34.24-6.05-20.88-45.33-24.51-55.77-44.04-5.57-10.99-.99-22.71,9.2-29.52-3.77,4.73-5.82,10.59-5.83,16.64,.91,.98,1.29,3.3,1.3,3.34,.13,.81,.37,2.51-.05,3.58,.45,1.17,1.02,2.3,1.7,3.35,1.36,.34,2.9,2.12,2.92,2.16,1.5,1.72,1.74,2.81,1.79,3.22,.92,.83,1.92,1.63,2.98,2.39,.88-.1,2.22,.32,3.58,1.19,1.56,1.02,2.34,2.04,2.56,2.8,1.09,.64,2.21,1.26,3.35,1.87,.88-.24,2.32,.04,3.76,.78s2.52,1.79,2.83,2.61l3.47,1.72c.87-.26,2.33,0,3.79,.74s2.48,1.74,2.81,2.58c1.19,.6,2.39,1.23,3.51,1.87,1.07-.22,2.79,.44,3.72,.99,1.15,.6,2.07,1.58,2.61,2.76,1.19,.76,2.3,1.54,3.38,2.34,.91-.04,2.26,.48,3.51,1.55,1.35,1.19,2.05,2.48,2.08,3.38,.93,.98,1.78,2.03,2.56,3.13,1.11,.27,2.22,1.56,2.84,2.84,.86,1.88,.75,3.2,.5,3.88,1.5,4.66,1.9,10.53-.51,17.3,0,.07-.05,.15-.09,.24,5.03-5.48,8.43-12.22,8.14-20.31-.95-26.38-39.91-33.7-50.81-45.02Z"/>
  <path class="cls-2" d="M82.64,54.63c-4.45-5.12-7.29-14.2-12.2-17.74-2.2,7.82,2.38,16.37,12.2,17.74Z"/>
  <path class="cls-4" d="M79.11,128.11c-.87,2.61-1.92,5.16-3.14,7.63-8.05-13.04-24.54-20.71-42.59-23.06,18.64-9.35,37.97,.49,45.73,15.43ZM118.56,38.46c-18.66,9.35-37.97-.49-45.73-15.44,.87-2.61,1.92-5.15,3.14-7.61-7.88,1.42-43.39,13.38-42.5,38.86,.92,26.34,39.88,33.67,50.79,44.98,8.59,8.95,2.54,17.89-2.98,21.18-.58,2.59-1.29,5.15-2.15,7.66,4.06-.71,16.36-7.22,16.44-19.76,.11-17.3-22.22-21.85-39.14-32.34-13.94-8.63-16.65-17.19-17.36-22.61-1.66-12.75,7.34-24.39,20.42-29.88-1.58,1.31-2.99,2.8-4.23,4.43-3.77,4.73-5.82,10.6-5.83,16.65,.91,.98,1.29,3.29,1.3,3.34,.13,.81,.37,2.51-.05,3.58,.45,1.15,1.02,2.24,1.7,3.27,1.36,.35,2.9,2.12,2.92,2.16,1.5,1.72,1.74,2.82,1.79,3.23,.92,.83,1.92,1.62,2.98,2.39,.88-.1,2.22,.33,3.58,1.19,1.56,1.03,2.34,2.04,2.56,2.8,1.09,.64,2.21,1.26,3.35,1.87,.88-.24,2.32,.04,3.76,.78s2.52,1.79,2.83,2.62l3.47,1.72c.87-.25,2.33,0,3.79,.75s2.48,1.73,2.81,2.58c1.19,.62,2.36,1.24,3.51,1.87,1.07-.22,2.79,.44,3.72,1,1.15,.6,2.07,1.57,2.61,2.76,1.19,.76,2.3,1.54,3.38,2.34,.91-.04,2.26,.48,3.51,1.55,1.35,1.19,2.05,2.48,2.08,3.37,.92,.98,1.78,2.03,2.56,3.13,1.11,.28,2.22,1.56,2.84,2.84,.86,1.88,.75,3.2,.5,3.88,1.5,4.66,1.9,10.54-.51,17.3,6.43-10.89,5.81-21.71-1.37-30.85-15.02-19.09-52.8-21.39-52.65-43.29,.06-4.64,1.84-9.09,4.99-12.5,1.26-1.41,3.04-2.25,4.93-2.33,9.91,0,12.84,21.9,33.51,21.11,7.38-.71,14.34-4.29,18.72-10.57v-.02Z"/>
</svg>